<svg width="189" height="40" viewBox="0 0 189 40" fill="none" xmlns="http://www.w3.org/2000/svg">
<rect x="11.3333" y="20" width="4.00694" height="4.00694" transform="rotate(-45 11.3333 20)" fill="black"/>
<rect x="5.66667" y="25.6667" width="4.00694" height="4.00694" transform="rotate(-45 5.66667 25.6667)" fill="black"/>
<rect x="5.66667" y="14.3333" width="4.00694" height="4.00694" transform="rotate(-45 5.66667 14.3333)" fill="black"/>
<rect y="20" width="4.00694" height="4.00694" transform="rotate(-45 0 20)" fill="black"/>
<path d="M174.678 22.7197C174.678 21.3538 174.954 20.1585 175.507 19.1341C176.06 18.0933 176.816 17.2884 177.776 16.7193C178.752 16.1501 179.833 15.8655 181.02 15.8655C182.191 15.8655 183.207 16.1176 184.069 16.6217C184.931 17.1258 185.573 17.76 185.996 18.5243V16.0851H188.24V29.4519H185.996V26.9639C185.557 27.7445 184.898 28.3949 184.02 28.9153C183.158 29.4194 182.15 29.6715 180.996 29.6715C179.809 29.6715 178.735 29.3787 177.776 28.7933C176.816 28.2079 176.06 27.3867 175.507 26.3297C174.954 25.2727 174.678 24.0694 174.678 22.7197ZM185.996 22.7441C185.996 21.7359 185.793 20.8578 185.386 20.1098C184.98 19.3617 184.427 18.7926 183.728 18.4023C183.045 17.9958 182.288 17.7925 181.459 17.7925C180.63 17.7925 179.874 17.9876 179.191 18.3779C178.508 18.7682 177.963 19.3373 177.556 20.0854C177.15 20.8334 176.947 21.7115 176.947 22.7197C176.947 23.7442 177.15 24.6386 177.556 25.4028C177.963 26.1509 178.508 26.7281 179.191 27.1347C179.874 27.5249 180.63 27.7201 181.459 27.7201C182.288 27.7201 183.045 27.5249 183.728 27.1347C184.427 26.7281 184.98 26.1509 185.386 25.4028C185.793 24.6386 185.996 23.7523 185.996 22.7441Z" fill="black"/>
<path d="M169.818 17.9145V25.7931C169.818 26.4436 169.956 26.907 170.232 27.1835C170.509 27.4436 170.989 27.5737 171.672 27.5737H173.306V29.4519H171.306C170.07 29.4519 169.143 29.1673 168.525 28.5982C167.907 28.0291 167.598 27.094 167.598 25.7931V17.9145H165.866V16.0851H167.598V12.719H169.818V16.0851H173.306V17.9145H169.818Z" fill="black"/>
<path d="M150.285 22.7197C150.285 21.3538 150.562 20.1585 151.114 19.1341C151.667 18.0933 152.423 17.2884 153.383 16.7193C154.359 16.1501 155.44 15.8655 156.627 15.8655C157.798 15.8655 158.814 16.1176 159.676 16.6217C160.538 17.1258 161.18 17.76 161.603 18.5243V16.0851H163.847V29.4519H161.603V26.9639C161.164 27.7445 160.505 28.3949 159.627 28.9153C158.765 29.4194 157.757 29.6715 156.603 29.6715C155.416 29.6715 154.342 29.3787 153.383 28.7933C152.423 28.2079 151.667 27.3867 151.114 26.3297C150.562 25.2727 150.285 24.0694 150.285 22.7197ZM161.603 22.7441C161.603 21.7359 161.4 20.8578 160.993 20.1098C160.587 19.3617 160.034 18.7926 159.335 18.4023C158.652 17.9958 157.895 17.7925 157.066 17.7925C156.237 17.7925 155.481 17.9876 154.798 18.3779C154.115 18.7682 153.57 19.3373 153.163 20.0854C152.757 20.8334 152.554 21.7115 152.554 22.7197C152.554 23.7442 152.757 24.6386 153.163 25.4028C153.57 26.1509 154.115 26.7281 154.798 27.1347C155.481 27.5249 156.237 27.7201 157.066 27.7201C157.895 27.7201 158.652 27.5249 159.335 27.1347C160.034 26.7281 160.587 26.1509 160.993 25.4028C161.4 24.6386 161.603 23.7523 161.603 22.7441Z" fill="black"/>
<path d="M139.649 12.4507C141.503 12.4507 143.105 12.8003 144.455 13.4995C145.821 14.1825 146.861 15.1663 147.577 16.451C148.309 17.7356 148.674 19.2479 148.674 20.9879C148.674 22.7278 148.309 24.2402 147.577 25.5248C146.861 26.7932 145.821 27.7689 144.455 28.4519C143.105 29.1186 141.503 29.4519 139.649 29.4519H134.356V12.4507H139.649ZM139.649 27.6225C141.845 27.6225 143.52 27.0452 144.674 25.8907C145.829 24.7199 146.406 23.0856 146.406 20.9879C146.406 18.8739 145.821 17.2234 144.65 16.0363C143.495 14.8492 141.828 14.2557 139.649 14.2557H136.576V27.6225H139.649Z" fill="black"/>
<path d="M117.24 22.6465C117.24 21.2806 117.508 20.0691 118.044 19.0121C118.597 17.9551 119.345 17.1421 120.289 16.5729C121.232 16.0038 122.281 15.7192 123.435 15.7192C124.313 15.7192 125.151 15.9143 125.947 16.3046C126.744 16.6786 127.378 17.1827 127.85 17.8169V11.4018H131.314V29.4519H127.85V27.4518C127.427 28.1185 126.834 28.6551 126.069 29.0617C125.305 29.4682 124.419 29.6715 123.411 29.6715C122.272 29.6715 121.232 29.3788 120.289 28.7933C119.345 28.2079 118.597 27.3867 118.044 26.3297C117.508 25.2565 117.24 24.0288 117.24 22.6465ZM127.874 22.6953C127.874 21.866 127.712 21.1586 127.387 20.5732C127.061 19.9715 126.622 19.5162 126.069 19.2073C125.517 18.882 124.923 18.7194 124.289 18.7194C123.655 18.7194 123.069 18.8739 122.533 19.1829C121.996 19.4918 121.557 19.9472 121.215 20.5488C120.89 21.1342 120.728 21.8335 120.728 22.6465C120.728 23.4596 120.89 24.1751 121.215 24.793C121.557 25.3947 121.996 25.8582 122.533 26.1834C123.085 26.5086 123.671 26.6712 124.289 26.6712C124.923 26.6712 125.517 26.5167 126.069 26.2078C126.622 25.8826 127.061 25.4272 127.387 24.8418C127.712 24.2402 127.874 23.5247 127.874 22.6953Z" fill="black"/>
<path d="M109.967 15.7436C111.577 15.7436 112.878 16.2558 113.87 17.2803C114.862 18.2885 115.358 19.7032 115.358 21.5245V29.4519H111.943V21.988C111.943 20.9147 111.675 20.0935 111.138 19.5244C110.602 18.939 109.87 18.6462 108.943 18.6462C108 18.6462 107.252 18.939 106.699 19.5244C106.162 20.0935 105.894 20.9147 105.894 21.988V29.4519H102.479V15.9387H105.894V17.6218C106.349 17.0364 106.927 16.5811 107.626 16.2558C108.341 15.9143 109.122 15.7436 109.967 15.7436Z" fill="black"/>
<path d="M93.4126 29.6715C92.1117 29.6715 90.9409 29.3869 89.9002 28.8177C88.8595 28.2323 88.0383 27.4111 87.4366 26.3541C86.8512 25.2971 86.5585 24.0775 86.5585 22.6953C86.5585 21.3131 86.8593 20.0935 87.461 19.0365C88.0789 17.9795 88.9164 17.1665 89.9734 16.5973C91.0304 16.0119 92.2093 15.7192 93.5102 15.7192C94.8111 15.7192 95.9901 16.0119 97.0471 16.5973C98.1041 17.1665 98.9334 17.9795 99.5351 19.0365C100.153 20.0935 100.462 21.3131 100.462 22.6953C100.462 24.0775 100.145 25.2971 99.5107 26.3541C98.8927 27.4111 98.0471 28.2323 96.9739 28.8177C95.9169 29.3869 94.7298 29.6715 93.4126 29.6715ZM93.4126 26.6956C94.0306 26.6956 94.6079 26.5493 95.1445 26.2566C95.6974 25.9476 96.1364 25.4923 96.4616 24.8906C96.7869 24.2889 96.9495 23.5572 96.9495 22.6953C96.9495 21.4107 96.608 20.4269 95.925 19.7439C95.2583 19.0446 94.4371 18.695 93.4614 18.695C92.4857 18.695 91.6645 19.0446 90.9978 19.7439C90.3474 20.4269 90.0221 21.4107 90.0221 22.6953C90.0221 23.98 90.3392 24.9719 90.9734 25.6712C91.6239 26.3541 92.437 26.6956 93.4126 26.6956Z" fill="black"/>
<path d="M79.1225 15.7436C80.7812 15.7436 82.1146 16.2558 83.1228 17.2803C84.1473 18.2885 84.6595 19.7032 84.6595 21.5245V29.4519H81.2446V21.988C81.2446 20.931 80.9763 20.126 80.4397 19.5731C79.9031 19.004 79.1713 18.7194 78.2444 18.7194C77.3175 18.7194 76.5776 19.004 76.0247 19.5731C75.4881 20.126 75.2198 20.931 75.2198 21.988V29.4519H71.8049V21.988C71.8049 20.931 71.5366 20.126 71 19.5731C70.4633 19.004 69.7316 18.7194 68.8047 18.7194C67.8615 18.7194 67.1135 19.004 66.5606 19.5731C66.024 20.126 65.7557 20.931 65.7557 21.988V29.4519H62.3408V15.9387H65.7557V17.573C66.1947 17.0038 66.7558 16.5567 67.4387 16.2314C68.138 15.9062 68.9023 15.7436 69.7316 15.7436C70.7886 15.7436 71.7317 15.9713 72.5611 16.4266C73.3904 16.8656 74.0327 17.4998 74.488 18.3292C74.9271 17.5486 75.5613 16.9225 76.3906 16.451C77.2362 15.9794 78.1468 15.7436 79.1225 15.7436Z" fill="black"/>
<path d="M45.4192 22.6465C45.4192 21.2806 45.6875 20.0691 46.2241 19.0121C46.777 17.9551 47.5169 17.1421 48.4438 16.5729C49.387 16.0038 50.4358 15.7192 51.5904 15.7192C52.5986 15.7192 53.4767 15.9225 54.2247 16.329C54.989 16.7355 55.5988 17.2478 56.0541 17.8657V15.9387H59.4934V29.4519H56.0541V27.4762C55.6151 28.1104 55.0053 28.6389 54.2247 29.0617C53.4604 29.4682 52.5742 29.6715 51.566 29.6715C50.4277 29.6715 49.387 29.3788 48.4438 28.7933C47.5169 28.2079 46.777 27.3867 46.2241 26.3297C45.6875 25.2565 45.4192 24.0288 45.4192 22.6465ZM56.0541 22.6953C56.0541 21.866 55.8915 21.1586 55.5663 20.5732C55.241 19.9715 54.802 19.5162 54.2491 19.2073C53.6962 18.882 53.1027 18.7194 52.4685 18.7194C51.8343 18.7194 51.2489 18.8739 50.7123 19.1829C50.1756 19.4918 49.7366 19.9472 49.3951 20.5488C49.0699 21.1342 48.9072 21.8335 48.9072 22.6465C48.9072 23.4596 49.0699 24.1751 49.3951 24.793C49.7366 25.3947 50.1756 25.8582 50.7123 26.1834C51.2651 26.5086 51.8506 26.6712 52.4685 26.6712C53.1027 26.6712 53.6962 26.5167 54.2491 26.2078C54.802 25.8826 55.241 25.4272 55.5663 24.8418C55.8915 24.2402 56.0541 23.5247 56.0541 22.6953Z" fill="black"/>
<path d="M41.7282 14.3288C41.1265 14.3288 40.6224 14.1418 40.2158 13.7678C39.8256 13.3776 39.6304 12.8978 39.6304 12.3287C39.6304 11.7595 39.8256 11.288 40.2158 10.914C40.6224 10.5237 41.1265 10.3285 41.7282 10.3285C42.3298 10.3285 42.8258 10.5237 43.2161 10.914C43.6226 11.288 43.8259 11.7595 43.8259 12.3287C43.8259 12.8978 43.6226 13.3776 43.2161 13.7678C42.8258 14.1418 42.3298 14.3288 41.7282 14.3288ZM43.4112 15.9387V29.4519H39.9963V15.9387H43.4112Z" fill="black"/>
<path d="M28.9517 12.4263C30.7404 12.4263 32.3096 12.7759 33.6593 13.4751C35.0253 14.1744 36.0742 15.1744 36.8059 16.4754C37.5539 17.76 37.9279 19.256 37.9279 20.9635C37.9279 22.6709 37.5539 24.167 36.8059 25.4516C36.0742 26.72 35.0253 27.7038 33.6593 28.4031C32.3096 29.1023 30.7404 29.4519 28.9517 29.4519H23V12.4263H28.9517ZM28.8297 26.5493C30.6185 26.5493 32.0007 26.0614 32.9764 25.0858C33.952 24.1101 34.4399 22.736 34.4399 20.9635C34.4399 19.191 33.952 17.8088 32.9764 16.8168C32.0007 15.8086 30.6185 15.3045 28.8297 15.3045H26.4149V26.5493H28.8297Z" fill="black"/>
</svg>
